<svg width="500" height="500" viewBox="0 0 500 500" fill="none" xmlns="http://www.w3.org/2000/svg">
<path d="M352.42 219.53L356.67 226.03L362.99 224.72L358.22 216.64L352.42 219.53Z" fill="#9F5B53"/>
<path d="M364.47 163.82C365.37 164.91 366.12 165.88 366.89 166.94C367.66 168 368.4 169.02 369.13 170.08C370.59 172.19 371.98 174.36 373.28 176.59C374.58 178.82 375.84 181.1 376.94 183.49C377.53 184.66 378.03 185.9 378.57 187.11C379.11 188.32 379.57 189.59 379.96 190.9L380.28 191.9L380.44 192.39C380.53 192.68 380.62 192.99 380.68 193.28C380.9 194.318 380.974 195.382 380.9 196.44C380.767 198.098 380.407 199.73 379.83 201.29C378.851 203.89 377.597 206.377 376.09 208.71C373.281 213.041 370.023 217.063 366.37 220.71L362 217.29C364.403 213.189 366.599 208.971 368.58 204.65C369.489 202.678 370.216 200.626 370.75 198.52C370.949 197.729 371.04 196.915 371.02 196.1C371.019 195.927 370.981 195.757 370.91 195.6L370.75 195.22L370.42 194.46C368.547 190.253 366.34 186.204 363.82 182.35C362.56 180.35 361.23 178.42 359.89 176.47C358.55 174.52 357.09 172.57 355.77 170.8L364.47 163.82Z" fill="#9F5B53"/>
<path d="M362 158.9C368.89 160.48 376.79 179.25 376.79 179.25L363 188.73C359.557 183.797 356.501 178.605 353.86 173.2C349.77 164.61 355 157.29 362 158.9Z" fill="#0C7489"/>
<path opacity="0.8" d="M362 158.9C368.89 160.48 376.79 179.25 376.79 179.25L363 188.73C359.557 183.797 356.501 178.605 353.86 173.2C349.77 164.61 355 157.29 362 158.9Z" fill="white"/>
<path d="M357.1 170.87L363.64 188.28L362.99 188.73C362.99 188.73 360.16 184.73 357.1 179.4V170.87Z" fill="#0C7489"/>
<path opacity="0.6" d="M357.1 170.87L363.64 188.28L362.99 188.73C362.99 188.73 360.16 184.73 357.1 179.4V170.87Z" fill="white"/>
<path d="M339.64 409.64H332.29L331.56 392.63H338.91L339.64 409.64Z" fill="#9F5B53"/>
<path d="M383.75 409.64H376.4L372.71 392.63H380.05L383.75 409.64Z" fill="#9F5B53"/>
<path d="M331.56 392.64L331.94 401.4H339.29L338.91 392.64H331.56Z" fill="#8A4743"/>
<path d="M380.06 392.64H372.71L374.61 401.4H381.96L380.06 392.64Z" fill="#8A4743"/>
<path d="M334.38 222.78C334.38 222.78 342.72 278.92 347.29 299.95C352.29 322.95 371.19 399.71 371.19 399.71H384.65C384.65 399.71 372.19 324.84 369.33 302C366.23 277.25 359.74 222.74 359.74 222.74L334.38 222.78Z" fill="#0C7489"/>
<path opacity="0.5" d="M334.38 222.78C334.38 222.78 342.72 278.92 347.29 299.95C352.29 322.95 371.19 399.71 371.19 399.71H384.65C384.65 399.71 372.19 324.84 369.33 302C366.23 277.25 359.74 222.74 359.74 222.74L334.38 222.78Z" fill="black"/>
<path opacity="0.4" d="M339.649 242.78C349.289 244.67 348.269 280.62 347.109 299.11C344.329 286.04 340.259 260.89 337.479 243.04C338.152 242.709 338.918 242.617 339.649 242.78Z" fill="black"/>
<path d="M320.44 222.78C320.44 222.78 319.44 277.7 320.23 300.11C321.06 323.41 329.23 399.71 329.23 399.71H341.67C341.67 399.71 342.13 324.77 342.67 301.89C343.27 276.94 346.28 222.78 346.28 222.78H320.44Z" fill="#0C7489"/>
<path opacity="0.5" d="M320.44 222.78C320.44 222.78 319.44 277.7 320.23 300.11C321.06 323.41 329.23 399.71 329.23 399.71H341.67C341.67 399.71 342.13 324.77 342.67 301.89C343.27 276.94 346.28 222.78 346.28 222.78H320.44Z" fill="black"/>
<path d="M363.59 215.72L358.22 216.64L362.99 224.72C362.99 224.72 366.73 222.92 367.41 219.43L363.59 215.72Z" fill="#9F5B53"/>
<path d="M328.1 131.6C328.1 132.19 327.79 132.67 327.4 132.67C327.01 132.67 326.7 132.19 326.7 131.6C326.7 131.01 327.01 130.53 327.4 130.53C327.79 130.53 328.1 131 328.1 131.6Z" fill="#263238"/>
<path d="M327.84 132.67C327.132 134.481 326.18 136.187 325.01 137.74C325.414 138.029 325.877 138.227 326.366 138.318C326.855 138.41 327.358 138.393 327.84 138.27V132.67Z" fill="#892B29"/>
<path d="M330.2 128.32C330.127 128.321 330.056 128.296 330 128.25C329.652 127.983 329.246 127.802 328.814 127.724C328.383 127.646 327.939 127.672 327.52 127.8C327.478 127.816 327.433 127.824 327.388 127.822C327.343 127.821 327.299 127.81 327.258 127.792C327.217 127.773 327.18 127.747 327.15 127.714C327.119 127.681 327.095 127.642 327.08 127.6C327.062 127.558 327.053 127.513 327.053 127.467C327.053 127.422 327.062 127.377 327.079 127.335C327.097 127.293 327.123 127.255 327.156 127.223C327.189 127.191 327.227 127.167 327.27 127.15C327.796 126.98 328.356 126.941 328.901 127.035C329.446 127.129 329.961 127.354 330.4 127.69C330.438 127.715 330.471 127.748 330.496 127.786C330.521 127.824 330.538 127.867 330.545 127.912C330.553 127.958 330.551 128.004 330.54 128.048C330.528 128.092 330.508 128.134 330.48 128.17C330.45 128.217 330.409 128.256 330.36 128.282C330.311 128.309 330.256 128.322 330.2 128.32Z" fill="#263238"/>
<path d="M347.23 138.43C346.17 143.81 345.12 153.65 348.88 157.24C348.88 157.24 347.41 162.69 337.42 162.69C326.42 162.69 332.18 157.24 332.18 157.24C338.18 155.81 338.02 151.36 336.97 147.19L347.23 138.43Z" fill="#9F5B53"/>
<path d="M350.32 159.11C351.11 157.39 351.97 155.41 350.18 154.79C348.18 154.11 337.41 153.42 333.69 154.69C333.199 154.826 332.74 155.058 332.34 155.373C331.939 155.687 331.605 156.078 331.357 156.523C331.109 156.967 330.951 157.457 330.893 157.962C330.835 158.468 330.878 158.981 331.02 159.47L350.32 159.11Z" fill="#0C7489"/>
<path d="M373.45 410C373.139 410.041 372.824 410.02 372.522 409.938C372.219 409.855 371.937 409.713 371.69 409.52C371.601 409.4 371.554 409.254 371.554 409.105C371.554 408.956 371.601 408.81 371.69 408.69C371.745 408.587 371.822 408.497 371.915 408.426C372.008 408.355 372.116 408.305 372.23 408.28C373.31 408.04 375.33 409.42 375.42 409.48C375.448 409.5 375.469 409.528 375.481 409.56C375.494 409.592 375.497 409.626 375.49 409.66C375.484 409.692 375.469 409.722 375.446 409.745C375.422 409.769 375.392 409.784 375.36 409.79C374.732 409.925 374.092 409.996 373.45 410ZM372.54 408.6H372.32C372.252 408.614 372.189 408.643 372.133 408.684C372.078 408.726 372.032 408.779 372 408.84C371.84 409.12 371.94 409.24 372 409.28C372.31 409.7 373.81 409.7 374.91 409.52C374.197 409.047 373.387 408.74 372.54 408.62V408.6Z" fill="#0C7489"/>
<path d="M375.33 409.82H375.25C374.49 409.4 373.02 407.82 373.17 406.98C373.195 406.85 373.265 406.733 373.367 406.649C373.469 406.566 373.598 406.52 373.73 406.52C373.862 406.506 373.995 406.518 374.122 406.556C374.249 406.593 374.367 406.656 374.47 406.74C375.32 407.44 375.47 409.56 375.47 409.65C375.474 409.682 375.469 409.714 375.454 409.742C375.44 409.771 375.418 409.794 375.39 409.81C375.371 409.818 375.35 409.821 375.33 409.82ZM373.85 406.82H373.77C373.54 406.82 373.52 406.96 373.51 407C373.42 407.49 374.36 408.7 375.11 409.27C375.057 408.435 374.758 407.634 374.25 406.97C374.135 406.883 373.994 406.837 373.85 406.84V406.82Z" fill="#0C7489"/>
<path d="M329.34 410C328.4 410 327.49 409.87 327.18 409.45C327.103 409.338 327.062 409.206 327.062 409.07C327.062 408.934 327.103 408.802 327.18 408.69C327.237 408.587 327.316 408.497 327.411 408.426C327.506 408.356 327.614 408.306 327.73 408.28C328.94 407.95 331.52 409.41 331.63 409.47C331.659 409.489 331.682 409.516 331.697 409.548C331.711 409.58 331.715 409.615 331.71 409.65C331.705 409.686 331.689 409.719 331.664 409.744C331.639 409.77 331.605 409.786 331.57 409.79C330.834 409.929 330.088 409.999 329.34 410ZM328.17 408.58C328.06 408.564 327.949 408.564 327.84 408.58C327.769 408.594 327.703 408.622 327.644 408.664C327.586 408.705 327.536 408.758 327.5 408.82C327.38 409.04 327.42 409.14 327.5 409.2C327.84 409.66 329.69 409.69 331.07 409.5C330.171 409.015 329.186 408.709 328.17 408.6V408.58Z" fill="#0C7489"/>
<path d="M331.56 409.82H331.489C330.599 409.43 328.85 407.82 328.98 407.01C328.98 406.81 329.15 406.57 329.63 406.52C329.808 406.493 329.99 406.506 330.163 406.558C330.336 406.609 330.495 406.699 330.63 406.82C331.57 407.58 331.759 409.56 331.769 409.65C331.773 409.68 331.769 409.711 331.757 409.74C331.744 409.768 331.725 409.792 331.7 409.81C331.678 409.821 331.655 409.828 331.631 409.83C331.606 409.832 331.582 409.828 331.56 409.82ZM329.769 406.82H329.66C329.35 406.82 329.33 406.98 329.32 407.02C329.24 407.52 330.44 408.77 331.32 409.31C331.233 408.47 330.883 407.679 330.32 407.05C330.166 406.918 329.972 406.844 329.769 406.84V406.82Z" fill="#0C7489"/>
<path d="M375.88 408.79H384.13C384.277 408.791 384.42 408.842 384.534 408.935C384.649 409.028 384.728 409.156 384.76 409.3L386.21 415.83C386.243 415.989 386.24 416.154 386.201 416.311C386.162 416.469 386.087 416.616 385.983 416.74C385.88 416.865 385.749 416.965 385.601 417.033C385.453 417.1 385.292 417.133 385.13 417.13C382.25 417.08 380.85 416.91 377.22 416.91C374.99 416.91 370.39 417.15 367.3 417.15C364.21 417.15 363.82 414.15 365.08 413.82C370.74 412.58 372.87 410.87 374.69 409.25C375.014 408.952 375.439 408.787 375.88 408.79Z" fill="#263238"/>
<path d="M332.339 408.79H340.339C340.487 408.791 340.629 408.842 340.744 408.935C340.858 409.027 340.938 409.156 340.969 409.3L342.419 415.83C342.454 415.988 342.453 416.151 342.415 416.308C342.378 416.465 342.306 416.611 342.204 416.736C342.102 416.861 341.973 416.962 341.827 417.03C341.68 417.098 341.521 417.132 341.359 417.13C338.469 417.08 334.289 416.91 330.649 416.91C326.399 416.91 322.719 417.15 317.729 417.15C314.729 417.15 313.879 414.15 315.139 413.82C320.889 412.56 325.579 412.43 330.549 409.37C331.079 409.01 331.7 408.809 332.339 408.79Z" fill="#263238"/>
<path d="M321.85 173.93C318.94 178.23 315.93 182.24 312.68 186.22C309.434 190.241 305.961 194.073 302.28 197.7L300.84 199.06L300.47 199.4L300.22 199.63L299.85 199.95C299.375 200.324 298.87 200.659 298.34 200.95C296.652 201.838 294.794 202.356 292.89 202.47C289.984 202.651 287.067 202.412 284.23 201.76C279.089 200.621 274.103 198.868 269.38 196.54L271.21 191.34C275.896 192.272 280.635 192.917 285.4 193.27C287.493 193.44 289.598 193.353 291.67 193.01C292.264 192.924 292.832 192.705 293.33 192.37V192.3L293.4 192.22L293.7 191.89L294.88 190.59C298.01 187.02 301.04 183.23 303.98 179.34C306.92 175.45 309.86 171.49 312.67 167.6L321.85 173.93Z" fill="#9F5B53"/>
<path d="M325.24 175.08C324.217 181.284 321.536 187.096 317.48 191.9C317.32 188.38 317.26 185.22 317.27 182.39L325.24 175.08Z" fill="#BED3FC"/>
<path d="M347.86 130.34C347.42 137.62 347.53 141.9 343.86 145.64C338.33 151.26 329.35 147.92 327.61 140.64C326.05 134.1 327.04 123.3 334.17 120.4C335.738 119.756 337.445 119.523 339.129 119.724C340.812 119.926 342.416 120.554 343.788 121.551C345.16 122.547 346.255 123.877 346.967 125.416C347.68 126.954 347.987 128.649 347.86 130.34Z" fill="#9F5B53"/>
<path d="M333.719 125.5C333.779 134.06 336.559 144.56 344.839 143.83C350.339 143.35 354.519 133.32 355.089 129.07C355.959 122.57 356.089 121.33 352.429 120.58C354.029 119.71 354.609 115.58 350.869 114.58C345.669 113.21 335.869 111.87 338.949 108.7C332.809 109.81 331.269 112.27 332.389 115.26C328.799 114.98 326.589 113.1 326.699 110.26C320.749 112.67 316.889 126.3 333.719 125.5Z" fill="#263238"/>
<path d="M338 132.46C337.594 134.225 336.617 135.807 335.22 136.96C333.37 138.46 331.89 137.12 331.93 134.96C331.93 133.01 332.99 129.88 335.07 129.22C337.15 128.56 338.51 130.33 338 132.46Z" fill="#9F5B53"/>
<path d="M358 122.07C357.021 121.447 355.903 121.077 354.746 120.993C353.588 120.909 352.428 121.114 351.37 121.59C351.37 121.59 355.53 116 358 122.07Z" fill="#263238"/>
<path d="M369 394.75C368.94 394.75 370.39 399.92 370.39 399.92H385.53L385.25 395.31L369 394.75Z" fill="#0C7489"/>
<path d="M326.81 394.75C326.75 394.75 327.51 399.92 327.51 399.92H342.65L343.06 395.31L326.81 394.75Z" fill="#0C7489"/>
<path d="M331.79 390.77C331.76 390.77 331.731 390.759 331.709 390.738C331.686 390.718 331.673 390.69 331.67 390.66C329.47 369.54 324.3 318.44 323.67 300.11C323 281.4 323.61 239.42 323.81 227C323.81 226.93 323.87 226.89 323.94 226.88C323.971 226.882 324 226.896 324.022 226.918C324.044 226.94 324.058 226.969 324.06 227C323.86 239.42 323.25 281.4 323.92 300.1C324.57 318.43 329.74 369.51 331.92 390.63C331.921 390.664 331.909 390.697 331.886 390.722C331.864 390.748 331.834 390.765 331.8 390.77H331.79Z" fill="#0C7489"/>
<path opacity="0.3" d="M331.79 390.77C331.76 390.77 331.731 390.759 331.709 390.738C331.686 390.718 331.673 390.69 331.67 390.66C329.47 369.54 324.3 318.44 323.67 300.11C323 281.4 323.61 239.42 323.81 227C323.81 226.93 323.87 226.89 323.94 226.88C323.971 226.882 324 226.896 324.022 226.918C324.044 226.94 324.058 226.969 324.06 227C323.86 239.42 323.25 281.4 323.92 300.1C324.57 318.43 329.74 369.51 331.92 390.63C331.921 390.664 331.909 390.697 331.886 390.722C331.864 390.748 331.834 390.765 331.8 390.77H331.79Z" fill="black"/>
<path d="M328.63 165.23C329.63 172.23 315.89 189.96 315.89 189.96L302.12 180.48C302.12 180.48 305.94 170.69 312.37 164.27C319.71 157 327.57 157.66 328.63 165.23Z" fill="#0C7489"/>
<path opacity="0.8" d="M328.63 165.23C329.63 172.23 315.89 189.96 315.89 189.96L302.12 180.48C302.12 180.48 305.94 170.69 312.37 164.27C319.71 157 327.57 157.66 328.63 165.23Z" fill="white"/>
<path d="M320.88 159.28C320.88 159.28 313.06 168.11 320.44 222.78H359.74C360.01 216.78 356.22 187.32 362.03 158.9C357.687 158.064 353.295 157.509 348.88 157.24C343.318 156.92 337.742 156.92 332.18 157.24C328.366 157.624 324.588 158.306 320.88 159.28Z" fill="#0C7489"/>
<path opacity="0.8" d="M320.88 159.28C320.88 159.28 313.06 168.11 320.44 222.78H359.74C360.01 216.78 356.22 187.32 362.03 158.9C357.687 158.064 353.295 157.509 348.88 157.24C343.318 156.92 337.742 156.92 332.18 157.24C328.366 157.624 324.588 158.306 320.88 159.28Z" fill="white"/>
<path d="M205.259 119.145C208.397 105.319 199.734 91.5674 185.908 88.4289C172.083 85.2904 158.331 93.9538 155.193 107.779C152.054 121.605 160.717 135.357 174.543 138.495C188.368 141.634 202.12 132.97 205.259 119.145Z" fill="#0C7489"/>
<path opacity="0.2" d="M205.259 119.145C208.397 105.319 199.734 91.5674 185.908 88.4289C172.083 85.2904 158.331 93.9538 155.193 107.779C152.054 121.605 160.717 135.357 174.543 138.495C188.368 141.634 202.12 132.97 205.259 119.145Z" fill="white"/>
<path d="M177.59 146.75C170.951 146.237 164.618 143.742 159.414 139.587C154.209 135.433 150.372 129.811 148.4 123.45L149.35 123.15C151.264 129.32 154.987 134.773 160.037 138.803C165.086 142.832 171.229 145.253 177.67 145.75L177.59 146.75Z" fill="#0C7489"/>
<path opacity="0.2" d="M177.59 146.75C170.951 146.237 164.618 143.742 159.414 139.587C154.209 135.433 150.372 129.811 148.4 123.45L149.35 123.15C151.264 129.32 154.987 134.773 160.037 138.803C165.086 142.832 171.229 145.253 177.67 145.75L177.59 146.75Z" fill="white"/>
<path d="M149.21 104.22L148.21 103.94C149.499 99.6329 151.645 95.6305 154.519 92.1731C157.393 88.7156 160.935 85.8744 164.934 83.8198C168.933 81.7652 173.306 80.5397 177.79 80.2166C182.275 79.8936 186.778 80.4798 191.03 81.94L190.71 82.89C186.582 81.475 182.212 80.9083 177.86 81.2238C173.508 81.5394 169.264 82.7308 165.384 84.7265C161.504 86.7221 158.067 89.481 155.279 92.8376C152.491 96.1942 150.41 100.079 149.16 104.26L149.21 104.22Z" fill="#0C7489"/>
<path opacity="0.2" d="M149.21 104.22L148.21 103.94C149.499 99.6329 151.645 95.6305 154.519 92.1731C157.393 88.7156 160.935 85.8744 164.934 83.8198C168.933 81.7652 173.306 80.5397 177.79 80.2166C182.275 79.8936 186.778 80.4798 191.03 81.94L190.71 82.89C186.582 81.475 182.212 80.9083 177.86 81.2238C173.508 81.5394 169.264 82.7308 165.384 84.7265C161.504 86.7221 158.067 89.481 155.279 92.8376C152.491 96.1942 150.41 100.079 149.16 104.26L149.21 104.22Z" fill="white"/>
<path d="M211.141 103.79C208.803 96.3134 203.827 89.9412 197.141 85.86L197.661 85C204.547 89.2147 209.671 95.7844 212.081 103.49L211.141 103.79Z" fill="#0C7489"/>
<path opacity="0.2" d="M211.141 103.79C208.803 96.3134 203.827 89.9412 197.141 85.86L197.661 85C204.547 89.2147 209.671 95.7844 212.081 103.49L211.141 103.79Z" fill="white"/>
<path d="M205.27 190.004C208.409 176.178 199.746 162.427 185.92 159.288C172.095 156.15 158.343 164.813 155.204 178.638C152.066 192.464 160.729 206.216 174.555 209.354C188.38 212.493 202.132 203.829 205.27 190.004Z" fill="#0C7489"/>
<path opacity="0.6" d="M205.27 190.004C208.409 176.178 199.746 162.427 185.92 159.288C172.095 156.15 158.343 164.813 155.204 178.638C152.066 192.464 160.729 206.216 174.555 209.354C188.38 212.493 202.132 203.829 205.27 190.004Z" fill="white"/>
<path d="M205.263 260.861C208.401 247.035 199.738 233.283 185.912 230.145C172.087 227.006 158.335 235.67 155.196 249.495C152.058 263.32 160.721 277.072 174.547 280.211C188.372 283.349 202.124 274.686 205.263 260.861Z" fill="#0C7489"/>
<path opacity="0.6" d="M205.263 260.861C208.401 247.035 199.738 233.283 185.912 230.145C172.087 227.006 158.335 235.67 155.196 249.495C152.058 263.32 160.721 277.072 174.547 280.211C188.372 283.349 202.124 274.686 205.263 260.861Z" fill="white"/>
<path d="M205.265 331.73C208.403 317.904 199.74 304.152 185.914 301.014C172.089 297.875 158.337 306.539 155.198 320.364C152.06 334.19 160.723 347.941 174.549 351.08C188.374 354.219 202.126 345.555 205.265 331.73Z" fill="#0C7489"/>
<path opacity="0.6" d="M205.265 331.73C208.403 317.904 199.74 304.152 185.914 301.014C172.089 297.875 158.337 306.539 155.198 320.364C152.06 334.19 160.723 347.941 174.549 351.08C188.374 354.219 202.126 345.555 205.265 331.73Z" fill="white"/>
<path d="M134.402 119.136C137.541 105.311 128.877 91.5591 115.052 88.4206C101.227 85.2821 87.4746 93.9455 84.3361 107.771C81.1976 121.596 89.861 135.348 103.686 138.487C117.512 141.625 131.264 132.962 134.402 119.136Z" fill="#0C7489"/>
<path opacity="0.6" d="M134.402 119.136C137.541 105.311 128.877 91.5591 115.052 88.4206C101.227 85.2821 87.4746 93.9455 84.3361 107.771C81.1976 121.596 89.861 135.348 103.686 138.487C117.512 141.625 131.264 132.962 134.402 119.136Z" fill="white"/>
<path d="M134.414 190.006C137.552 176.18 128.889 162.428 115.064 159.29C101.238 156.151 87.4863 164.815 84.3478 178.64C81.2093 192.465 89.8727 206.217 103.698 209.356C117.524 212.494 131.275 203.831 134.414 190.006Z" fill="#0C7489"/>
<path opacity="0.6" d="M134.414 190.006C137.552 176.18 128.889 162.428 115.064 159.29C101.238 156.151 87.4863 164.815 84.3478 178.64C81.2093 192.465 89.8727 206.217 103.698 209.356C117.524 212.494 131.275 203.831 134.414 190.006Z" fill="white"/>
<path d="M134.405 260.863C137.544 247.037 128.88 233.285 115.055 230.147C101.23 227.008 87.4775 235.672 84.339 249.497C81.2005 263.322 89.8639 277.074 103.689 280.213C117.515 283.351 131.267 274.688 134.405 260.863Z" fill="#0C7489"/>
<path opacity="0.6" d="M134.405 260.863C137.544 247.037 128.88 233.285 115.055 230.147C101.23 227.008 87.4775 235.672 84.339 249.497C81.2005 263.322 89.8639 277.074 103.689 280.213C117.515 283.351 131.267 274.688 134.405 260.863Z" fill="white"/>
<path d="M134.407 331.722C137.546 317.896 128.882 304.144 115.057 301.006C101.231 297.867 87.4795 306.531 84.341 320.356C81.2025 334.181 89.8659 347.933 103.691 351.072C117.517 354.21 131.269 345.547 134.407 331.722Z" fill="#0C7489"/>
<path opacity="0.6" d="M134.407 331.722C137.546 317.896 128.882 304.144 115.057 301.006C101.231 297.867 87.4795 306.531 84.341 320.356C81.2025 334.181 89.8659 347.933 103.691 351.072C117.517 354.21 131.269 345.547 134.407 331.722Z" fill="white"/>
<path d="M272.201 191.88L266.811 186.3L261.061 193.72C261.061 193.72 265.441 197.94 270.651 196.72L272.201 191.88Z" fill="#9F5B53"/>
<path d="M259.4 183.24L256.94 191.02L261.06 193.72L266.81 186.3L259.4 183.24Z" fill="#9F5B53"/>
<path d="M186 183.66C186.446 182.336 187.173 181.123 188.132 180.107C189.091 179.09 190.258 178.293 191.554 177.771C192.85 177.248 194.244 177.012 195.64 177.079C197.036 177.147 198.401 177.515 199.64 178.16L193.64 175.04C191.419 173.918 189.702 172 188.831 169.669C187.96 167.338 187.999 164.764 188.94 162.46C189.473 161.245 190.249 160.153 191.22 159.25C192.192 158.347 193.338 157.653 194.588 157.211C195.838 156.769 197.166 156.587 198.489 156.678C199.812 156.769 201.102 157.131 202.28 157.74L196.28 154.63C194.057 153.508 192.338 151.588 191.467 149.255C190.596 146.921 190.636 144.345 191.58 142.04C192.112 140.815 192.891 139.713 193.868 138.803C194.846 137.893 196.001 137.195 197.261 136.753C198.521 136.31 199.859 136.133 201.191 136.233C202.523 136.332 203.82 136.706 205 137.33L176.51 122.43C174.414 121.382 172.76 119.622 171.844 117.465C170.927 115.309 170.809 112.896 171.51 110.66C171.959 109.336 172.688 108.125 173.648 107.109C174.608 106.094 175.776 105.298 177.072 104.775C178.369 104.253 179.762 104.017 181.158 104.083C182.554 104.15 183.919 104.517 185.16 105.16L245.16 136.53L239 111.25C238.394 108.71 238.773 106.035 240.062 103.764C241.351 101.493 243.454 99.7962 245.946 99.0155C248.438 98.2348 251.133 98.4287 253.487 99.5581C255.841 100.687 257.68 102.668 258.63 105.1L278.31 156.22C279.996 160.589 283.212 164.197 287.36 166.37L290.79 168.16C291.316 168.434 291.782 168.809 292.163 169.264C292.543 169.719 292.829 170.244 293.006 170.81C293.183 171.376 293.246 171.971 293.191 172.562C293.137 173.152 292.967 173.726 292.69 174.25L268.69 220.1C268.135 221.16 267.182 221.956 266.04 222.314C264.899 222.672 263.662 222.562 262.6 222.01L254.18 217.61C250.991 215.973 247.417 215.234 243.84 215.47C235.192 215.953 226.574 214.087 218.9 210.07L190.9 195.43C188.822 194.366 187.189 192.599 186.292 190.443C185.395 188.288 185.291 185.884 186 183.66Z" fill="#0C7489"/>
<path d="M264.74 224C263.772 224.001 262.818 223.768 261.96 223.32L253.54 218.92C250.59 217.41 247.288 216.719 243.98 216.92C235.062 217.42 226.175 215.499 218.26 211.36L190.26 196.72C187.862 195.493 185.976 193.455 184.938 190.969C183.899 188.482 183.776 185.709 184.59 183.14C185.104 181.608 185.945 180.206 187.056 179.031C188.166 177.857 189.519 176.939 191.02 176.34C191.427 176.172 191.844 176.031 192.27 175.92C189.932 174.519 188.176 172.324 187.32 169.736C186.465 167.148 186.568 164.339 187.61 161.82C188.215 160.409 189.108 159.139 190.233 158.094C191.357 157.048 192.688 156.25 194.14 155.75C194.41 155.66 194.68 155.57 194.95 155.5C192.611 154.1 190.853 151.906 189.997 149.317C189.142 146.728 189.246 143.918 190.29 141.4C190.896 139.99 191.79 138.723 192.914 137.679C194.039 136.636 195.369 135.839 196.82 135.34C197.07 135.25 197.33 135.17 197.58 135.1L175.82 123.72C173.422 122.493 171.536 120.455 170.498 117.969C169.459 115.482 169.336 112.709 170.15 110.14C170.668 108.612 171.51 107.214 172.618 106.041C173.727 104.868 175.075 103.949 176.572 103.346C178.069 102.743 179.678 102.471 181.29 102.547C182.901 102.624 184.477 103.048 185.91 103.79L243 133.67L237.61 111.6C236.919 108.691 237.357 105.629 238.837 103.031C240.317 100.433 242.727 98.4937 245.582 97.6049C248.437 96.716 251.522 96.9438 254.215 98.2423C256.908 99.5408 259.008 101.813 260.09 104.6L279.77 155.72C281.325 159.75 284.293 163.077 288.12 165.08L291.54 166.87C292.24 167.235 292.862 167.734 293.368 168.34C293.875 168.945 294.257 169.644 294.493 170.398C294.729 171.151 294.814 171.944 294.743 172.73C294.673 173.517 294.447 174.281 294.08 174.98L270.08 220.84C269.563 221.803 268.791 222.607 267.85 223.164C266.909 223.721 265.834 224.01 264.74 224ZM245.11 213.91C248.525 213.892 251.894 214.698 254.93 216.26L263.35 220.66C263.7 220.846 264.084 220.961 264.479 220.997C264.873 221.034 265.272 220.992 265.65 220.874C266.028 220.756 266.38 220.564 266.684 220.309C266.987 220.055 267.238 219.742 267.42 219.39L291.42 173.53C291.604 173.18 291.717 172.797 291.752 172.402C291.787 172.008 291.744 171.611 291.625 171.234C291.506 170.856 291.314 170.506 291.059 170.204C290.804 169.901 290.492 169.652 290.14 169.47L286.72 167.68C282.261 165.342 278.806 161.46 277 156.76L257.31 105.64C256.52 103.535 254.953 101.812 252.932 100.826C250.911 99.8391 248.589 99.6638 246.443 100.336C244.297 101.008 242.489 102.476 241.391 104.438C240.294 106.401 239.989 108.71 240.54 110.89L246.72 136.18C246.789 136.459 246.775 136.752 246.681 137.023C246.587 137.295 246.417 137.533 246.19 137.71C245.964 137.891 245.69 138.001 245.403 138.028C245.115 138.054 244.825 137.996 244.57 137.86L184.57 106.49C183.524 105.946 182.373 105.635 181.196 105.578C180.019 105.522 178.843 105.72 177.75 106.16C176.643 106.591 175.646 107.264 174.831 108.129C174.016 108.994 173.405 110.029 173.04 111.16C172.443 113.057 172.539 115.104 173.312 116.936C174.085 118.768 175.485 120.265 177.26 121.16L205.76 136.06C206.113 136.244 206.378 136.561 206.497 136.941C206.616 137.321 206.579 137.732 206.395 138.085C206.304 138.26 206.179 138.415 206.028 138.541C205.877 138.668 205.702 138.763 205.514 138.822C205.134 138.941 204.723 138.904 204.37 138.72C203.375 138.204 202.285 137.897 201.167 137.82C200.049 137.743 198.927 137.896 197.87 138.27C196.809 138.636 195.836 139.218 195.013 139.981C194.19 140.744 193.535 141.67 193.09 142.7C192.294 144.654 192.264 146.837 193.005 148.812C193.746 150.788 195.205 152.412 197.09 153.36L203.09 156.48C203.413 156.68 203.648 156.994 203.748 157.36C203.848 157.726 203.805 158.116 203.629 158.452C203.453 158.788 203.156 159.045 202.798 159.171C202.44 159.297 202.048 159.282 201.7 159.13C200.706 158.616 199.618 158.31 198.502 158.233C197.385 158.156 196.265 158.308 195.21 158.68C194.149 159.048 193.176 159.632 192.353 160.397C191.53 161.161 190.875 162.089 190.43 163.12C189.637 165.073 189.608 167.253 190.349 169.227C191.091 171.2 192.547 172.822 194.43 173.77L200.43 176.89C200.783 177.074 201.048 177.391 201.167 177.771C201.286 178.151 201.249 178.562 201.065 178.915C200.881 179.268 200.564 179.533 200.184 179.652C199.804 179.771 199.393 179.734 199.04 179.55C197.993 179.011 196.842 178.703 195.665 178.648C194.488 178.592 193.313 178.791 192.22 179.23C191.117 179.666 190.124 180.341 189.311 181.205C188.499 182.069 187.887 183.102 187.52 184.23C186.921 186.127 187.016 188.174 187.789 190.007C188.563 191.839 189.963 193.336 191.74 194.23L219.74 208.87C227.159 212.705 235.472 214.477 243.81 214C244.25 214 244.68 213.93 245.11 213.93V213.91Z" fill="#0C7489"/>
<path d="M207.13 183.57C206.886 183.572 206.646 183.514 206.43 183.4L199 179.49C198.825 179.399 198.67 179.274 198.544 179.123C198.417 178.972 198.322 178.797 198.263 178.609C198.204 178.421 198.183 178.223 198.2 178.027C198.218 177.831 198.274 177.64 198.365 177.465C198.456 177.29 198.581 177.135 198.732 177.009C198.883 176.883 199.058 176.787 199.246 176.728C199.434 176.669 199.632 176.648 199.828 176.665C200.024 176.683 200.215 176.739 200.39 176.83L207.86 180.74C208.157 180.895 208.394 181.145 208.533 181.451C208.671 181.756 208.703 182.1 208.624 182.425C208.544 182.751 208.358 183.041 208.094 183.249C207.831 183.456 207.505 183.569 207.17 183.57H207.13Z" fill="#0C7489"/>
<path d="M209.811 163.15C209.567 163.153 209.326 163.095 209.111 162.98L201.641 159.07C201.452 158.988 201.282 158.867 201.142 158.716C201.002 158.565 200.894 158.387 200.826 158.193C200.758 157.998 200.73 157.792 200.745 157.587C200.76 157.381 200.817 157.181 200.913 156.999C201.009 156.816 201.141 156.656 201.301 156.527C201.462 156.398 201.647 156.303 201.846 156.249C202.044 156.194 202.252 156.182 202.456 156.211C202.66 156.241 202.855 156.312 203.031 156.42L210.501 160.32C210.798 160.475 211.035 160.725 211.173 161.031C211.312 161.336 211.344 161.68 211.264 162.005C211.185 162.331 210.998 162.621 210.735 162.829C210.471 163.036 210.146 163.149 209.811 163.15Z" fill="#0C7489"/>
<path d="M212.48 142.74C212.24 142.737 212.004 142.679 211.79 142.57L204.32 138.66C204.146 138.569 203.991 138.444 203.864 138.293C203.738 138.142 203.642 137.967 203.583 137.779C203.524 137.591 203.503 137.393 203.521 137.197C203.538 137.001 203.594 136.81 203.685 136.635C203.777 136.461 203.901 136.306 204.052 136.179C204.204 136.053 204.378 135.957 204.566 135.898C204.754 135.839 204.952 135.818 205.148 135.836C205.345 135.853 205.536 135.909 205.71 136L213.18 139.91C213.478 140.066 213.716 140.317 213.854 140.623C213.992 140.93 214.024 141.274 213.943 141.6C213.862 141.927 213.674 142.217 213.409 142.423C213.144 142.63 212.817 142.742 212.48 142.74Z" fill="#0C7489"/>
<path opacity="0.3" d="M264.74 224C263.772 224.001 262.818 223.768 261.96 223.32L253.54 218.92C250.59 217.41 247.288 216.719 243.98 216.92C235.062 217.42 226.175 215.499 218.26 211.36L190.26 196.72C187.862 195.493 185.976 193.455 184.938 190.969C183.899 188.482 183.776 185.709 184.59 183.14C185.104 181.608 185.945 180.206 187.056 179.031C188.166 177.857 189.519 176.939 191.02 176.34C191.427 176.172 191.844 176.031 192.27 175.92C189.932 174.519 188.176 172.324 187.32 169.736C186.465 167.148 186.568 164.339 187.61 161.82C188.215 160.409 189.108 159.139 190.233 158.094C191.357 157.048 192.688 156.25 194.14 155.75C194.41 155.66 194.68 155.57 194.95 155.5C192.611 154.1 190.853 151.906 189.997 149.317C189.142 146.728 189.246 143.918 190.29 141.4C190.896 139.99 191.79 138.723 192.914 137.679C194.039 136.636 195.369 135.839 196.82 135.34C197.07 135.25 197.33 135.17 197.58 135.1L175.82 123.72C173.422 122.493 171.536 120.455 170.498 117.969C169.459 115.482 169.336 112.709 170.15 110.14C170.668 108.612 171.51 107.214 172.618 106.041C173.727 104.868 175.075 103.949 176.572 103.346C178.069 102.743 179.678 102.471 181.29 102.547C182.901 102.624 184.477 103.048 185.91 103.79L243 133.67L237.61 111.6C236.919 108.691 237.357 105.629 238.837 103.031C240.317 100.433 242.727 98.4937 245.582 97.6049C248.437 96.716 251.522 96.9438 254.215 98.2423C256.908 99.5408 259.008 101.813 260.09 104.6L279.77 155.72C281.325 159.75 284.293 163.077 288.12 165.08L291.54 166.87C292.24 167.235 292.862 167.734 293.368 168.34C293.875 168.945 294.257 169.644 294.493 170.398C294.729 171.151 294.814 171.944 294.743 172.73C294.673 173.517 294.447 174.281 294.08 174.98L270.08 220.84C269.563 221.803 268.791 222.607 267.85 223.164C266.909 223.721 265.834 224.01 264.74 224ZM245.11 213.91C248.525 213.892 251.894 214.698 254.93 216.26L263.35 220.66C263.7 220.846 264.084 220.961 264.479 220.997C264.873 221.034 265.272 220.992 265.65 220.874C266.028 220.756 266.38 220.564 266.684 220.309C266.987 220.055 267.238 219.742 267.42 219.39L291.42 173.53C291.604 173.18 291.717 172.797 291.752 172.402C291.787 172.008 291.744 171.611 291.625 171.234C291.506 170.856 291.314 170.506 291.059 170.204C290.804 169.901 290.492 169.652 290.14 169.47L286.72 167.68C282.261 165.342 278.806 161.46 277 156.76L257.31 105.64C256.52 103.535 254.953 101.812 252.932 100.826C250.911 99.8391 248.589 99.6638 246.443 100.336C244.297 101.008 242.489 102.476 241.391 104.438C240.294 106.401 239.989 108.71 240.54 110.89L246.72 136.18C246.789 136.459 246.775 136.752 246.681 137.023C246.587 137.295 246.417 137.533 246.19 137.71C245.964 137.891 245.69 138.001 245.403 138.028C245.115 138.054 244.825 137.996 244.57 137.86L184.57 106.49C183.524 105.946 182.373 105.635 181.196 105.578C180.019 105.522 178.843 105.72 177.75 106.16C176.643 106.591 175.646 107.264 174.831 108.129C174.016 108.994 173.405 110.029 173.04 111.16C172.443 113.057 172.539 115.104 173.312 116.936C174.085 118.768 175.485 120.265 177.26 121.16L205.76 136.06C206.113 136.244 206.378 136.561 206.497 136.941C206.616 137.321 206.579 137.732 206.395 138.085C206.304 138.26 206.179 138.415 206.028 138.541C205.877 138.668 205.702 138.763 205.514 138.822C205.134 138.941 204.723 138.904 204.37 138.72C203.375 138.204 202.285 137.897 201.167 137.82C200.049 137.743 198.927 137.896 197.87 138.27C196.809 138.636 195.836 139.218 195.013 139.981C194.19 140.744 193.535 141.67 193.09 142.7C192.294 144.654 192.264 146.837 193.005 148.812C193.746 150.788 195.205 152.412 197.09 153.36L203.09 156.48C203.413 156.68 203.648 156.994 203.748 157.36C203.848 157.726 203.805 158.116 203.629 158.452C203.453 158.788 203.156 159.045 202.798 159.171C202.44 159.297 202.048 159.282 201.7 159.13C200.706 158.616 199.618 158.31 198.502 158.233C197.385 158.156 196.265 158.308 195.21 158.68C194.149 159.048 193.176 159.632 192.353 160.397C191.53 161.161 190.875 162.089 190.43 163.12C189.637 165.073 189.608 167.253 190.349 169.227C191.091 171.2 192.547 172.822 194.43 173.77L200.43 176.89C200.783 177.074 201.048 177.391 201.167 177.771C201.286 178.151 201.249 178.562 201.065 178.915C200.881 179.268 200.564 179.533 200.184 179.652C199.804 179.771 199.393 179.734 199.04 179.55C197.993 179.011 196.842 178.703 195.665 178.648C194.488 178.592 193.313 178.791 192.22 179.23C191.117 179.666 190.124 180.341 189.311 181.205C188.499 182.069 187.887 183.102 187.52 184.23C186.921 186.127 187.016 188.174 187.789 190.007C188.563 191.839 189.963 193.336 191.74 194.23L219.74 208.87C227.159 212.705 235.472 214.477 243.81 214C244.25 214 244.68 213.93 245.11 213.93V213.91Z" fill="black"/>
</svg>
